<svg xmlns="http://www.w3.org/2000/svg"  viewBox="0 0 1024 1024"><defs><linearGradient id="bg_AlterEgoByen" x1="0" y1="0" x2="1" y2="1"><stop offset="0" stop-color="#1a1d29"/><stop offset="1" stop-color="#08090e"/></linearGradient><radialGradient id="gl_AlterEgoByen" cx="50%" cy="42%" r="60%"><stop offset="0" stop-color="rgba(91,33,182,0.55)"/><stop offset="1" stop-color="rgba(0,0,0,0)"/></radialGradient></defs><rect width="1024" height="1024" rx="230" fill="url(#bg_AlterEgoByen)"/><rect width="1024" height="1024" rx="230" fill="url(#gl_AlterEgoByen)"/><rect x="46" y="46" width="932" height="932" rx="180" fill="none" stroke="rgba(91,33,182,0.6)" stroke-width="16"/><g transform="translate(297.00,297.00) scale(17.9167)" fill="none" stroke="#f5f7fa" stroke-width="1.8" stroke-linecap="round" stroke-linejoin="round"><path d="M18 11c-1.5 0-2.5.5-3 2" /><path d="M4 6a2 2 0 0 0-2 2v4a5 5 0 0 0 5 5 8 8 0 0 1 5 2 8 8 0 0 1 5-2 5 5 0 0 0 5-5V8a2 2 0 0 0-2-2h-3a8 8 0 0 0-5 2 8 8 0 0 0-5-2z" /><path d="M6 11c1.5 0 2.5.5 3 2" /></g></svg>