<svg xmlns="http://www.w3.org/2000/svg"  viewBox="0 0 1024 1024"><defs><linearGradient id="bg_HandleArena" x1="0" y1="0" x2="1" y2="1"><stop offset="0" stop-color="#1a1d29"/><stop offset="1" stop-color="#08090e"/></linearGradient><radialGradient id="gl_HandleArena" cx="50%" cy="42%" r="60%"><stop offset="0" stop-color="rgba(15,118,110,0.55)"/><stop offset="1" stop-color="rgba(0,0,0,0)"/></radialGradient></defs><rect width="1024" height="1024" rx="230" fill="url(#bg_HandleArena)"/><rect width="1024" height="1024" rx="230" fill="url(#gl_HandleArena)"/><rect x="46" y="46" width="932" height="932" rx="180" fill="none" stroke="rgba(15,118,110,0.6)" stroke-width="16"/><g transform="translate(297.00,297.00) scale(17.9167)" fill="none" stroke="#f5f7fa" stroke-width="1.8" stroke-linecap="round" stroke-linejoin="round"><path d="M16 10a4 4 0 0 1-8 0" /><path d="M3.103 6.034h17.794" /><path d="M3.4 5.467a2 2 0 0 0-.4 1.2V20a2 2 0 0 0 2 2h14a2 2 0 0 0 2-2V6.667a2 2 0 0 0-.4-1.2l-2-2.667A2 2 0 0 0 17 2H7a2 2 0 0 0-1.6.8z" /></g></svg>