<svg xmlns="http://www.w3.org/2000/svg"  viewBox="0 0 1024 1024"><defs><linearGradient id="bg_IQArena" x1="0" y1="0" x2="1" y2="1"><stop offset="0" stop-color="#1a1d29"/><stop offset="1" stop-color="#08090e"/></linearGradient><radialGradient id="gl_IQArena" cx="50%" cy="42%" r="60%"><stop offset="0" stop-color="rgba(109,40,217,0.55)"/><stop offset="1" stop-color="rgba(0,0,0,0)"/></radialGradient></defs><rect width="1024" height="1024" rx="230" fill="url(#bg_IQArena)"/><rect width="1024" height="1024" rx="230" fill="url(#gl_IQArena)"/><rect x="46" y="46" width="932" height="932" rx="180" fill="none" stroke="rgba(109,40,217,0.6)" stroke-width="16"/><g transform="translate(297.00,297.00) scale(17.9167)" fill="none" stroke="#f5f7fa" stroke-width="1.8" stroke-linecap="round" stroke-linejoin="round"><path d="M12 18V5" /><path d="M15 13a4.17 4.17 0 0 1-3-4 4.17 4.17 0 0 1-3 4" /><path d="M17.598 6.5A3 3 0 1 0 12 5a3 3 0 1 0-5.598 1.5" /><path d="M17.997 5.125a4 4 0 0 1 2.526 5.77" /><path d="M18 18a4 4 0 0 0 2-7.464" /><path d="M19.967 17.483A4 4 0 1 1 12 18a4 4 0 1 1-7.967-.517" /><path d="M6 18a4 4 0 0 1-2-7.464" /><path d="M6.003 5.125a4 4 0 0 0-2.526 5.77" /></g></svg>