<svg xmlns="http://www.w3.org/2000/svg" viewBox="0 0 1024 1024"><defs><linearGradient id="bg_KunstArena" x1="0" y1="0" x2="1" y2="1"><stop offset="0" stop-color="#1a1d29"/><stop offset="1" stop-color="#08090e"/></linearGradient><radialGradient id="gl_KunstArena" cx="50%" cy="42%" r="60%"><stop offset="0" stop-color="rgba(192,38,211,0.55)"/><stop offset="1" stop-color="rgba(0,0,0,0)"/></radialGradient></defs><rect width="1024" height="1024" rx="230" fill="url(#bg_KunstArena)"/><rect width="1024" height="1024" rx="230" fill="url(#gl_KunstArena)"/><rect x="46" y="46" width="932" height="932" rx="180" fill="none" stroke="rgba(192,38,211,0.6)" stroke-width="16"/><g transform="translate(297,297) scale(17.9167)" fill="none" stroke="#f5f7fa" stroke-width="1.8" stroke-linecap="round" stroke-linejoin="round"><path d="m21.64 3.64-1.28-1.28a1.21 1.21 0 0 0-1.72 0L2.36 18.64a1.21 1.21 0 0 0 0 1.72l1.28 1.28a1.2 1.2 0 0 0 1.72 0L21.64 5.36a1.2 1.2 0 0 0 0-1.72Z"/><path d="m14 7 3 3"/><path d="M5 6v4"/><path d="M19 14v4"/><path d="M10 2v2"/><path d="M7 8H3"/><path d="M21 16h-4"/><path d="M11 3H9"/></g></svg>