<svg xmlns="http://www.w3.org/2000/svg"  viewBox="0 0 1024 1024"><defs><linearGradient id="bg_LopeArena" x1="0" y1="0" x2="1" y2="1"><stop offset="0" stop-color="#1a1d29"/><stop offset="1" stop-color="#08090e"/></linearGradient><radialGradient id="gl_LopeArena" cx="50%" cy="42%" r="60%"><stop offset="0" stop-color="rgba(217,70,239,0.55)"/><stop offset="1" stop-color="rgba(0,0,0,0)"/></radialGradient></defs><rect width="1024" height="1024" rx="230" fill="url(#bg_LopeArena)"/><rect width="1024" height="1024" rx="230" fill="url(#gl_LopeArena)"/><rect x="46" y="46" width="932" height="932" rx="180" fill="none" stroke="rgba(217,70,239,0.6)" stroke-width="16"/><g transform="translate(297.00,297.00) scale(17.9167)" fill="none" stroke="#f5f7fa" stroke-width="1.8" stroke-linecap="round" stroke-linejoin="round"><path d="M3 14h3a2 2 0 0 1 2 2v3a2 2 0 0 1-2 2H5a2 2 0 0 1-2-2v-7a9 9 0 0 1 18 0v7a2 2 0 0 1-2 2h-1a2 2 0 0 1-2-2v-3a2 2 0 0 1 2-2h3" /></g></svg>