<svg xmlns="http://www.w3.org/2000/svg"  viewBox="0 0 1024 1024"><defs><linearGradient id="bg_PresentationCoach" x1="0" y1="0" x2="1" y2="1"><stop offset="0" stop-color="#1a1d29"/><stop offset="1" stop-color="#08090e"/></linearGradient><radialGradient id="gl_PresentationCoach" cx="50%" cy="42%" r="60%"><stop offset="0" stop-color="rgba(217,119,6,0.55)"/><stop offset="1" stop-color="rgba(0,0,0,0)"/></radialGradient></defs><rect width="1024" height="1024" rx="230" fill="url(#bg_PresentationCoach)"/><rect width="1024" height="1024" rx="230" fill="url(#gl_PresentationCoach)"/><rect x="46" y="46" width="932" height="932" rx="180" fill="none" stroke="rgba(217,119,6,0.6)" stroke-width="16"/><g transform="translate(297.00,297.00) scale(17.9167)"
     fill="none" stroke="#f5f7fa" stroke-width="1.8"
     stroke-linecap="round" stroke-linejoin="round"><path d="M11 6a13 13 0 0 0 8.4-2.8A1 1 0 0 1 21 4v12a1 1 0 0 1-1.6.8A13 13 0 0 0 11 14H5a2 2 0 0 1-2-2V8a2 2 0 0 1 2-2z" /><path d="M6 14a12 12 0 0 0 2.4 7.2 2 2 0 0 0 3.2-2.4A8 8 0 0 1 10 14" /><path d="M8 6v8" /></g></svg>