<svg xmlns="http://www.w3.org/2000/svg"  viewBox="0 0 1024 1024"><defs><linearGradient id="bg_RemoteArena" x1="0" y1="0" x2="1" y2="1"><stop offset="0" stop-color="#1a1d29"/><stop offset="1" stop-color="#08090e"/></linearGradient><radialGradient id="gl_RemoteArena" cx="50%" cy="42%" r="60%"><stop offset="0" stop-color="rgba(245,179,1,0.55)"/><stop offset="1" stop-color="rgba(0,0,0,0)"/></radialGradient></defs><rect width="1024" height="1024" rx="230" fill="url(#bg_RemoteArena)"/><rect width="1024" height="1024" rx="230" fill="url(#gl_RemoteArena)"/><rect x="46" y="46" width="932" height="932" rx="180" fill="none" stroke="rgba(245,179,1,0.6)" stroke-width="16"/><g transform="translate(297.00,297.00) scale(17.9167)" fill="none" stroke="#f5f7fa" stroke-width="1.8" stroke-linecap="round" stroke-linejoin="round"><path d="M4.9 16.1C1 12.2 1 5.8 4.9 1.9" /><path d="M7.8 4.7a6.14 6.14 0 0 0-.8 7.5" /><circle cx="12" cy="9" r="2" /><path d="M16.2 4.8c2 2 2.26 5.11.8 7.47" /><path d="M19.1 1.9a9.96 9.96 0 0 1 0 14.1" /><path d="M9.5 18h5" /><path d="m8 22 4-11 4 11" /></g></svg>