<svg xmlns="http://www.w3.org/2000/svg"  viewBox="0 0 1024 1024"><defs><linearGradient id="bg_SkoleArena" x1="0" y1="0" x2="1" y2="1"><stop offset="0" stop-color="#1a1d29"/><stop offset="1" stop-color="#08090e"/></linearGradient><radialGradient id="gl_SkoleArena" cx="50%" cy="42%" r="60%"><stop offset="0" stop-color="rgba(37,99,235,0.55)"/><stop offset="1" stop-color="rgba(0,0,0,0)"/></radialGradient></defs><rect width="1024" height="1024" rx="230" fill="url(#bg_SkoleArena)"/><rect width="1024" height="1024" rx="230" fill="url(#gl_SkoleArena)"/><rect x="46" y="46" width="932" height="932" rx="180" fill="none" stroke="rgba(37,99,235,0.6)" stroke-width="16"/><g transform="translate(297.00,297.00) scale(17.9167)" fill="none" stroke="#f5f7fa" stroke-width="1.8" stroke-linecap="round" stroke-linejoin="round"><path d="M14 21v-3a2 2 0 0 0-4 0v3" /><path d="M18 4.933V21" /><path d="m4 6 7.106-3.79a2 2 0 0 1 1.788 0L20 6" /><path d="m6 11-3.52 2.147a1 1 0 0 0-.48.854V19a2 2 0 0 0 2 2h16a2 2 0 0 0 2-2v-5a1 1 0 0 0-.48-.853L18 11" /><path d="M6 4.933V21" /><circle cx="12" cy="9" r="2" /></g></svg>